[Header]
FileType HTR
DataType HTRS
FileVersion 1
NumSegments 64
NumFrames 3
DataFrameRate 24
EulerRotationOrder ZYX
CalibrationUnits mm
RotationUnits Degrees
GlobalAxisofGravity Y
BoneLengthAxis Y
ScaleFactor 1.0
[SegmentNames&Hierarchy]
Hips	GLOBAL
Spine	Hips
Spine1	Spine
Spine2	Spine1
Neck	Spine2
Head	Neck
LeftEye	Head
RightEye	Head
LeftShoulder	Spine2
LeftArm	LeftShoulder
LeftForeArm	LeftArm
LeftHand	LeftForeArm
LeftHandThumb1	LeftHand
LeftHandThumb2	LeftHandThumb1
LeftHandThumb3	LeftHandThumb2
LeftHandThumb4	LeftHandThumb3
LeftHandIndex1	LeftHand
LeftHandIndex2	LeftHandIndex1
LeftHandIndex3	LeftHandIndex2
LeftHandIndex4	LeftHandIndex3
LeftHandMiddle1	LeftHand
LeftHandMiddle2	LeftHandMiddle1
LeftHandMiddle3	LeftHandMiddle2
LeftHandMiddle4	LeftHandMiddle3
LeftHandRing1	LeftHand
LeftHandRing2	LeftHandRing1
LeftHandRing3	LeftHandRing2
LeftHandRing4	LeftHandRing3
LeftHandPinky1	LeftHand
LeftHandPinky2	LeftHandPinky1
LeftHandPinky3	LeftHandPinky2
LeftHandPinky4	LeftHandPinky3
RightShoulder	Spine2
RightArm	RightShoulder
RightForeArm	RightArm
RightHand	RightForeArm
RightHandPinky1	RightHand
RightHandPinky2	RightHandPinky1
RightHandPinky3	RightHandPinky2
RightHandPinky4	RightHandPinky3
RightHandRing1	RightHand
RightHandRing2	RightHandRing1
RightHandRing3	RightHandRing2
RightHandRing4	RightHandRing3
RightHandMiddle1	RightHand
RightHandMiddle2	RightHandMiddle1
RightHandMiddle3	RightHandMiddle2
RightHandMiddle4	RightHandMiddle3
RightHandIndex1	RightHand
RightHandIndex2	RightHandIndex1
RightHandIndex3	RightHandIndex2
RightHandIndex4	RightHandIndex3
RightHandThumb1	RightHand
RightHandThumb2	RightHandThumb1
RightHandThumb3	RightHandThumb2
RightHandThumb4	RightHandThumb3
LeftUpLeg	Hips
LeftLeg	LeftUpLeg
LeftFoot	LeftLeg
LeftToeBase	LeftFoot
RightUpLeg	Hips
RightLeg	RightUpLeg
RightFoot	RightLeg
RightToeBase	RightFoot
[BasePosition]
Hips	0	0	0	0	0	0	1
Spine	0	0	0	0	0	0	1
Spine1	0	0	0	0	0	0	1
Spine2	0	0	0	0	0	0	1
Neck	0	0	0	0	0	0	1
Head	0	0	0	0	0	0	1
LeftEye	0	0	0	0	0	0	1
RightEye	0	0	0	0	0	0	1
LeftShoulder	0	0	0	0	0	0	1
LeftArm	0	0	0	0	0	0	1
LeftForeArm	0	0	0	0	0	0	1
LeftHand	0	0	0	0	0	0	1
LeftHandThumb1	0	0	0	0	0	0	1
LeftHandThumb2	0	0	0	0	0	0	1
LeftHandThumb3	0	0	0	0	0	0	1
LeftHandThumb4	0	0	0	0	0	0	1
LeftHandIndex1	0	0	0	0	0	0	1
LeftHandIndex2	0	0	0	0	0	0	1
LeftHandIndex3	0	0	0	0	0	0	1
LeftHandIndex4	0	0	0	0	0	0	1
LeftHandMiddle1	0	0	0	0	0	0	1
LeftHandMiddle2	0	0	0	0	0	0	1
LeftHandMiddle3	0	0	0	0	0	0	1
LeftHandMiddle4	0	0	0	0	0	0	1
LeftHandRing1	0	0	0	0	0	0	1
LeftHandRing2	0	0	0	0	0	0	1
LeftHandRing3	0	0	0	0	0	0	1
LeftHandRing4	0	0	0	0	0	0	1
LeftHandPinky1	0	0	0	0	0	0	1
LeftHandPinky2	0	0	0	0	0	0	1
LeftHandPinky3	0	0	0	0	0	0	1
LeftHandPinky4	0	0	0	0	0	0	1
RightShoulder	0	0	0	0	0	0	1
RightArm	0	0	0	0	0	0	1
RightForeArm	0	0	0	0	0	0	1
RightHand	0	0	0	0	0	0	1
RightHandPinky1	0	0	0	0	0	0	1
RightHandPinky2	0	0	0	0	0	0	1
RightHandPinky3	0	0	0	0	0	0	1
RightHandPinky4	0	0	0	0	0	0	1
RightHandRing1	0	0	0	0	0	0	1
RightHandRing2	0	0	0	0	0	0	1
RightHandRing3	0	0	0	0	0	0	1
RightHandRing4	0	0	0	0	0	0	1
RightHandMiddle1	0	0	0	0	0	0	1
RightHandMiddle2	0	0	0	0	0	0	1
RightHandMiddle3	0	0	0	0	0	0	1
RightHandMiddle4	0	0	0	0	0	0	1
RightHandIndex1	0	0	0	0	0	0	1
RightHandIndex2	0	0	0	0	0	0	1
RightHandIndex3	0	0	0	0	0	0	1
RightHandIndex4	0	0	0	0	0	0	1
RightHandThumb1	0	0	0	0	0	0	1
RightHandThumb2	0	0	0	0	0	0	1
RightHandThumb3	0	0	0	0	0	0	1
RightHandThumb4	0	0	0	0	0	0	1
LeftUpLeg	0	0	0	0	0	0	1
LeftLeg	0	0	0	0	0	0	1
LeftFoot	0	0	0	0	0	0	1
LeftToeBase	0	0	0	0	0	0	1
RightUpLeg	0	0	0	0	0	0	1
RightLeg	0	0	0	0	0	0	1
RightFoot	0	0	0	0	0	0	1
RightToeBase	0	0	0	0	0	0	1
[Hips]
3	16.8143692	1020.132385	7.880722046	2.676478386	4.022994041	-3.868339777	1.0
4	25.53821182	1008.563538	1.545467377	6.24143362	4.285283089	-2.714549303	1.0
5	37.29097366	968.4456787	-8.605232239	11.23472881	4.864872456	-0.7367720604	1.0
[Spine]
3	0	101.8159943	1.315000057	2.656687021	-0.7048874497	1.749316335	1.0
4	0	101.8159943	1.315000057	3.211223602	-0.7290388942	0.547732532	1.0
5	0	101.8159943	1.315000057	3.759349108	-0.9076768756	-0.7810283899	1.0
[Spine1]
3	0	100.8349991	-10.00800037	1.050270081	0.1323930323	5.338374138	1.0
4	0	100.8349991	-10.00800037	1.141342163	-0.01492106542	4.768805027	1.0
5	0	100.8349991	-10.00800037	1.310163379	-0.2258704901	4.082995415	1.0
[Spine2]
3	0	91	-13.73399925	1.070692182	0.6261889935	5.263253689	1.0
4	0	91	-13.73399925	1.148386717	0.4493150115	4.702410698	1.0
5	0	91	-13.73399925	1.302927852	0.2030414045	4.026611328	1.0
[Neck]
3	0	166.7169952	-25.16200066	0.1909478903	-0.7330397964	-2.053211212	1.0
4	0	166.7169952	-25.16200066	-0.5354565978	-0.8371453881	-1.776323676	1.0
5	0	166.7169952	-25.16200066	-2.564145803	-0.9258630276	-1.841509938	1.0
[Head]
3	0	96.17900085	16.84999847	-5.499728203	-1.82749474	-8.152116776	1.0
4	0	96.17900085	16.84999847	-10.29126167	-2.412428141	-7.543220997	1.0
5	0	96.17900085	16.84999847	-15.65779877	-3.222305298	-6.954939365	1.0
[LeftEye]
3	30.6760006	64.09500122	92.83599854	0	0	0	1.0
4	30.6760006	64.09500122	92.83599854	0	0	0	1.0
5	30.6760006	64.09500122	92.83599854	0	0	0	1.0
[RightEye]
3	-30.6760006	64.09500122	92.83499908	0	0	0	1.0
4	-30.6760006	64.09500122	92.83499908	0	0	0	1.0
5	-30.6760006	64.09500122	92.83499908	0	0	0	1.0
[LeftShoulder]
3	45.70400238	109.4599991	-26.28000069	4.432905674	-14.33002281	-3.70020771	1.0
4	45.70400238	109.4599991	-26.28000069	4.063156605	-12.91622639	-0.9695930481	1.0
5	45.70400238	109.4599991	-26.28000069	3.23306632	-13.85918713	2.320884228	1.0
[LeftArm]
3	105.923996	-5.24600029	-22.32099915	-12.86081886	12.01754665	-80.929039	1.0
4	105.923996	-5.24600029	-22.32099915	-16.72703743	27.15507126	-80.89072418	1.0
5	105.923996	-5.24600029	-22.32099915	-25.01502037	44.33444595	-86.38615417	1.0
[LeftForeArm]
3	278.414978	-0.0009999999311	0	5.780318588e-06	-37.10403824	-0.0002273864084	1.0
4	278.414978	-0.0009999999311	0	2.563268936e-05	-57.1963768	-0.0002375066542	1.0
5	278.414978	-0.0009999999311	0	-4.262160758e-07	-72.0316925	-0.0001961895177	1.0
[LeftHand]
3	283.2879944	0	0	-24.50816536	-6.517998695	8.081864357	1.0
4	283.2879944	0	0	-28.83745956	-8.978610039	22.02681923	1.0
5	283.2879944	0	0	-31.39469147	-9.279624939	30.81180573	1.0
[LeftHandThumb1]
3	24.6609993	-15.75	26.8239994	18.24385452	-3.670501947	10.26714706	1.0
4	24.6609993	-15.75	26.8239994	17.77398872	-4.402116776	10.18626881	1.0
5	24.6609993	-15.75	26.8239994	15.55611992	-7.48069191	9.760772705	1.0
[LeftHandThumb2]
3	32.29800034	-18.64699936	18.64699936	-0.2658219337	33.25939941	-2.740354538	1.0
4	32.29800034	-18.64699936	18.64699936	-0.8923931122	31.67353249	-3.108067036	1.0
5	32.29800034	-18.64699936	18.64699936	-3.420916319	24.63395882	-4.4421525	1.0
[LeftHandThumb3]
3	26.52600098	-15.31499958	15.31499958	2.140758514	9.509994507	0.02937344834	1.0
4	26.52600098	-15.31499958	15.31499958	1.967727184	8.87788105	-0.128570959	1.0
5	26.52600098	-15.31499958	15.31499958	1.22731328	6.080531597	-0.8005372286	1.0
[LeftHandThumb4]
3	19.54599953	-11.28499985	11.28499985	0	0	0	1.0
4	19.54599953	-11.28499985	11.28499985	0	0	0	1.0
5	19.54599953	-11.28499985	11.28499985	0	0	0	1.0
[LeftHandIndex1]
3	91.09299469	-5.170999527	22.60099792	0.3830288053	4.022061348	1.132327437	1.0
4	91.09299469	-5.170999527	22.60099792	0.7486280799	2.628307819	6.003500462	1.0
5	91.09299469	-5.170999527	22.60099792	1.063925385	-1.574465513	9.62349987	1.0
[LeftHandIndex2]
3	36.76399994	0	0	-0.2600941956	1.940173507	-11.63359642	1.0
4	36.76399994	0	0	-0.1122891232	1.45479691	-6.646714687	1.0
5	36.76399994	0	0	-0.02356850728	1.051743984	-2.592361689	1.0
[LeftHandIndex3]
3	28.83100128	0	0	-0.02054613456	-0.0867511332	-1.246161222	1.0
4	28.83100128	0	0	-0.03135518357	-0.5865234137	3.724955797	1.0
5	28.83100128	0	0	-0.07258051634	-0.9947361946	7.805130005	1.0
[LeftHandIndex4]
3	23.92700005	0	0	0	0	0	1.0
4	23.92700005	0	0	0	0	0	1.0
5	23.92700005	0	0	0	0	0	1.0
[LeftHandMiddle1]
3	95.33399963	0	0	-0.4910443127	8.199821472	-6.833035469	1.0
4	95.33399963	0	0	0.02860232629	7.077324867	-1.880374193	1.0
5	95.33399963	0	0	0.4202371836	5.016421795	2.046596527	1.0
[LeftHandMiddle2]
3	36.98199844	0	0	-0.8660535216	3.111276388	-24.44841766	1.0
4	36.98199844	0	0	-0.6042214036	2.67931056	-19.45757294	1.0
5	36.98199844	0	0	-0.4181180894	2.308846951	-15.36403847	1.0
[LeftHandMiddle3]
3	29.50900078	0	0	-0.01151025388	0.608656466	-3.337464571	1.0
4	29.50900078	0	0	0.005413994193	0.1141084284	1.634115934	1.0
5	29.50900078	0	0	-0.01277282927	-0.2916283906	5.714127064	1.0
[LeftHandMiddle4]
3	28.3390007	0	0	0	0	0	1.0
4	28.3390007	0	0	0	0	0	1.0
5	28.3390007	0	0	0	0	0	1.0
[LeftHandRing1]
3	91.04499817	-0.4390000105	-18.65100098	-1.845602632	10.66671658	-17.89065552	1.0
4	91.04499817	-0.4390000105	-18.65100098	-1.26515758	10.87190533	-12.81116486	1.0
5	91.04499817	-0.4390000105	-18.65100098	-0.8499484062	12.12337208	-8.547309875	1.0
[LeftHandRing2]
3	31.54000092	0	0	-0.7062491775	3.314888954	-31.20993614	1.0
4	31.54000092	0	0	-0.4847538769	2.871330023	-26.20141792	1.0
5	31.54000092	0	0	-0.3323228359	2.493264914	-22.08590508	1.0
[LeftHandRing3]
3	29.37700081	0	0	0.05028260872	1.026899338	-10.40964127	1.0
4	29.37700081	0	0	0.07000163943	0.5323014259	-5.438033581	1.0
5	29.37700081	0	0	0.05409849435	0.1263464242	-1.358305335	1.0
[LeftHandRing4]
3	26.47500038	0	0	0	0	0	1.0
4	26.47500038	0	0	0	0	0	1.0
5	26.47500038	0	0	0	0	0	1.0
[LeftHandPinky1]
3	80.77799988	-4.887000084	-38.06099701	-3.354319572	15.09893513	-27.69320297	1.0
4	80.77799988	-4.887000084	-38.06099701	-2.517863274	16.35608292	-22.55370522	1.0
5	80.77799988	-4.887000084	-38.06099701	-1.985689521	20.1119194	-18.14824677	1.0
[LeftHandPinky2]
3	36	0	0	-1.315014005	3.171588421	-36.6062088	1.0
4	36	0	0	-1.008644938	2.768416643	-31.532938	1.0
5	36	0	0	-0.7826470733	2.414780855	-27.33062363	1.0
[LeftHandPinky3]
3	21.14200211	0	0	-0.2232080251	1.998474598	-11.58985519	1.0
4	21.14200211	0	0	-0.1025442034	1.514688611	-6.615132809	1.0
5	21.14200211	0	0	-0.03520157188	1.111043692	-2.534073114	1.0
[LeftHandPinky4]
3	19.75699997	0	0	0	0	0	1.0
4	19.75699997	0	0	0	0	0	1.0
5	19.75699997	0	0	0	0	0	1.0
[RightShoulder]
3	-45.70000076	109.4620056	-26.28000069	4.790565491	4.130369186	4.34082222	1.0
4	-45.70000076	109.4620056	-26.28000069	4.823700428	4.371504307	4.31730032	1.0
5	-45.70000076	109.4620056	-26.28000069	4.800589561	4.013836861	3.219224215	1.0
[RightArm]
3	-105.9280014	-5.248000145	-22.32099915	4.064469337	-3.273474455	64.16349792	1.0
4	-105.9280014	-5.248000145	-22.32099915	5.306108475	-13.1877079	58.12828064	1.0
5	-105.9280014	-5.248000145	-22.32099915	4.593260765	-27.82011795	53.28741837	1.0
[RightForeArm]
3	-278.414978	0	0	-8.331965546e-06	31.65151405	-1.422082096e-05	1.0
4	-278.414978	0	0	5.610219887e-06	50.32695007	9.350508662e-06	1.0
5	-278.414978	0	0	4.940012332e-06	69.14318085	-8.664127563e-06	1.0
[RightHand]
3	-283.2879944	0	0.0009999999311	-2.95273304	-13.31093788	-3.006449461	1.0
4	-283.2879944	0	0.0009999999311	6.418034077	-16.50744438	-14.99472713	1.0
5	-283.2879944	0	0.0009999999311	14.76019573	-16.91699219	-26.10652924	1.0
[RightHandPinky1]
3	-80.76699829	-4.885000229	-38.06000137	-2.914809465	-15.5650053	25.10834122	1.0
4	-80.76699829	-4.885000229	-38.06000137	-2.212123394	-17.58704376	20.13767433	1.0
5	-80.76699829	-4.885000229	-38.06000137	-1.802457094	-21.39355087	16.60042381	1.0
[RightHandPinky2]
3	-36	0	0.0009999999311	-1.155068398	-2.969970703	34.04828644	1.0
4	-36	0	0.0009999999311	-0.8777483106	-2.57022357	29.17434883	1.0
5	-36	0	0.0009999999311	-0.7095007896	-2.286339283	25.87068748	1.0
[RightHandPinky3]
3	-21.14200211	0	0	-0.349388063	1.121555448	10.69492531	1.0
4	-21.14200211	0	0	-0.2402562648	1.586238384	5.938052654	1.0
5	-21.14200211	0	0	-0.1888172626	1.902449489	2.745727777	1.0
[RightHandPinky4]
3	-19.75699997	0	0	0	0	0	1.0
4	-19.75699997	0	0	0	0	0	1.0
5	-19.75699997	0	0	0	0	0	1.0
[RightHandRing1]
3	-91.03599548	-0.4390000105	-18.65100098	-1.544948339	-10.70503998	15.33172131	1.0
4	-91.03599548	-0.4390000105	-18.65100098	-1.017173529	-11.21943188	10.44126797	1.0
5	-91.03599548	-0.4390000105	-18.65100098	-0.7110327482	-12.54405308	7.066194057	1.0
[RightHandRing2]
3	-31.54000092	0	0	-0.5895118117	-3.093077898	28.68191147	1.0
4	-31.54000092	0	0	-0.3955859542	-2.659659624	23.88594437	1.0
5	-31.54000092	0	0	-0.2858972847	-2.359727144	20.66214943	1.0
[RightHandRing3]
3	-29.37700081	0	0	-0.01046099514	1.219616413	6.382590771	1.0
4	-29.37700081	0	0	-0.02401939407	1.693294764	1.622443318	1.0
5	-29.37700081	0	0	-0.05516628549	2.009821653	-1.572682738	1.0
[RightHandRing4]
3	-26.47500038	0	0	0	0	0	1.0
4	-26.47500038	0	0	0	0	0	1.0
5	-26.47500038	0	0	0	0	0	1.0
[RightHandMiddle1]
3	-95.32500458	0	0	-0.2242438197	-7.710708141	4.323549271	1.0
4	-95.32500458	0	0	0.2531594932	-6.272109985	-0.3722710311	1.0
5	-95.32500458	0	0	0.5503411889	-4.296589375	-3.398520947	1.0
[RightHandMiddle2]
3	-36.98199844	0	0	-0.7291061878	-2.895786762	21.92884064	1.0
4	-36.98199844	0	0	-0.4961057305	-2.472076416	17.15199471	1.0
5	-36.98199844	0	0	-0.3599306941	-2.177465677	13.9478569	1.0
[RightHandMiddle3]
3	-29.50900078	0	0	-0.03096392937	-0.5638264418	4.460620403	1.0
4	-29.50900078	0	0	-0.004601623863	-0.09083633125	-0.2994629443	1.0
5	-29.50900078	0	0	-0.00897429511	0.2270834297	-3.493706465	1.0
[RightHandMiddle4]
3	-28.3390007	0	0.0009999999311	0	0	0	1.0
4	-28.3390007	0	0.0009999999311	0	0	0	1.0
5	-28.3390007	0	0.0009999999311	0	0	0	1.0
[RightHandIndex1]
3	-91.08300018	-5.167999744	22.60099792	0.568772614	-3.561990023	-3.620609522	1.0
4	-91.08300018	-5.167999744	22.60099792	0.9274122119	-1.26381743	-8.164506912	1.0
5	-91.08300018	-5.167999744	22.60099792	1.178247213	3.211108208	-10.84544945	1.0
[RightHandIndex2]
3	-36.76399994	0	0	-0.1801399291	-1.696485639	9.114338875	1.0
4	-36.76399994	0	0	-0.05822460726	-1.2257936	4.335863113	1.0
5	-36.76399994	0	0	-0.0001912050648	-0.9150066376	1.230214119	1.0
[RightHandIndex3]
3	-28.83100128	0	0	-0.07618628442	0.9789922237	2.412493706	1.0
4	-28.83100128	0	0	-0.07591068	1.457552314	-2.346991777	1.0
5	-28.83100128	0	0	-0.09801272303	1.77797997	-5.5415802	1.0
[RightHandIndex4]
3	-23.92700005	0	0	0	0	0	1.0
4	-23.92700005	0	0	0	0	0	1.0
5	-23.92700005	0	0	0	0	0	1.0
[RightHandThumb1]
3	-24.64799881	-15.72700024	26.82600021	18.14022827	3.833511114	-10.24919128	1.0
4	-24.64799881	-15.72700024	26.82600021	17.12792587	5.318696499	-10.05527401	1.0
5	-24.64799881	-15.72700024	26.82600021	14.68854523	8.711524963	-9.643837929	1.0
[RightHandThumb2]
3	-32.29800034	-18.64699936	18.64699936	-0.4074637592	-32.90687943	2.82600379	1.0
4	-32.29800034	-18.64699936	18.64699936	-1.677201152	-29.59947586	3.550307512	1.0
5	-32.29800034	-18.64699936	18.64699936	-4.331822872	-21.84567642	4.857546806	1.0
[RightHandThumb3]
3	-26.52600098	-15.31399918	15.31399918	1.879855275	-8.516382217	0.8172172904	1.0
4	-26.52600098	-15.31399918	15.31399918	1.542357445	-7.194546223	1.134623289	1.0
5	-26.52600098	-15.31399918	15.31399918	0.7870789766	-4.106686592	1.84145546	1.0
[RightHandThumb4]
3	-19.54599953	-11.28499985	11.28499985	0	0	0	1.0
4	-19.54599953	-11.28499985	11.28499985	0	0	0	1.0
5	-19.54599953	-11.28499985	11.28499985	0	0	0	1.0
[LeftUpLeg]
3	82.07800293	-67.51699829	-15.99599934	-24.4270153	14.83392143	9.715153694	1.0
4	82.07800293	-67.51699829	-15.99599934	-31.81722832	13.04442501	7.725098133	1.0
5	82.07800293	-67.51699829	-15.99599934	-42.46879578	9.613754272	5.005411625	1.0
[LeftLeg]
3	0	-443.7049866	2.845999956	28.36941719	3.748657465	2.668004751	1.0
4	0	-443.7049866	2.845999956	35.88374329	1.717548132	2.204204559	1.0
5	0	-443.7049866	2.845999956	46.21863174	0.2711114883	1.757868767	1.0
[LeftFoot]
3	0	-444.2789917	-29.8219986	0.55828619	3.177181721	-11.22389793	1.0
4	0	-444.2789917	-29.8219986	-0.5467319489	3.072430372	-11.48326969	1.0
5	0	-444.2789917	-29.8219986	-4.521472454	2.777356863	-10.95023441	1.0
[LeftToeBase]
3	0	-87.28699493	107.1060028	-0.7573366165	0.003970953636	0.8418787718	1.0
4	0	-87.28699493	107.1060028	-1.163623929	0.01013215724	1.105466485	1.0
5	0	-87.28699493	107.1060028	-5.025466442	0.156726554	2.505727053	1.0
[RightUpLeg]
3	-82.07800293	-67.51699829	-15.99599934	-7.413526058	-1.573495626	10.1972456	1.0
4	-82.07800293	-67.51699829	-15.99599934	-16.7035408	2.315391541	8.82549572	1.0
5	-82.07800293	-67.51699829	-15.99599934	-32.72849274	2.395291805	4.710482597	1.0
[RightLeg]
3	0	-443.7049866	2.861999989	12.60371971	-5.421647549	-0.6797242761	1.0
4	0	-443.7049866	2.861999989	22.94732094	-4.4684062	-2.512579441	1.0
5	0	-443.7049866	2.861999989	42.86293793	-4.489280224	-2.167052269	1.0
[RightFoot]
3	0	-444.2770081	-29.83799934	-9.013895035	-4.503025055	-5.193293095	1.0
4	0	-444.2770081	-29.83799934	-12.28668594	-7.842312813	-2.562362194	1.0
5	0	-444.2770081	-29.83799934	-17.53431129	-6.93805933	-1.523762822	1.0
[RightToeBase]
3	0	-87.28699493	107.1060028	-1.710101247	-1.054756993e-08	1.342168332e-07	1.0
4	0	-87.28699493	107.1060028	-1.598524094	1.490443083e-06	2.239385594e-06	1.0
5	0	-87.28699493	107.1060028	-4.780176163	3.882718715e-07	-9.925576023e-07	1.0
[EndOfFile]
